<svg width="297" height="129" viewBox="0 0 297 129" fill="none" xmlns="http://www.w3.org/2000/svg">
<g clip-path="url(#clip0_2101_191)">
<path d="M9.072 48.64V82H3.6V48.64H9.072ZM29.6003 55.12C31.6803 55.12 33.5363 55.552 35.1683 56.416C36.8323 57.28 38.1283 58.56 39.0563 60.256C39.9843 61.952 40.4483 64 40.4483 66.4V82H35.0243V67.216C35.0243 64.848 34.4323 63.04 33.2483 61.792C32.0643 60.512 30.4483 59.872 28.4003 59.872C26.3523 59.872 24.7203 60.512 23.5043 61.792C22.3203 63.04 21.7283 64.848 21.7283 67.216V82H16.2563V55.552H21.7283V58.576C22.6243 57.488 23.7603 56.64 25.1363 56.032C26.5443 55.424 28.0323 55.12 29.6003 55.12ZM57.0281 82.432C54.9481 82.432 53.0761 82.064 51.4121 81.328C49.7801 80.56 48.4841 79.536 47.5241 78.256C46.5641 76.944 46.0521 75.488 45.9881 73.888H51.6521C51.7481 75.008 52.2761 75.952 53.2361 76.72C54.2281 77.456 55.4601 77.824 56.9321 77.824C58.4681 77.824 59.6521 77.536 60.4841 76.96C61.3481 76.352 61.7801 75.584 61.7801 74.656C61.7801 73.664 61.3001 72.928 60.3401 72.448C59.4121 71.968 57.9241 71.44 55.8761 70.864C53.8921 70.32 52.2761 69.792 51.0281 69.28C49.7801 68.768 48.6921 67.984 47.7641 66.928C46.8681 65.872 46.4201 64.48 46.4201 62.752C46.4201 61.344 46.8361 60.064 47.6681 58.912C48.5001 57.728 49.6841 56.8 51.2201 56.128C52.7881 55.456 54.5801 55.12 56.5961 55.12C59.6041 55.12 62.0201 55.888 63.8441 57.424C65.7001 58.928 66.6921 60.992 66.8201 63.616H61.3481C61.2521 62.432 60.7721 61.488 59.9081 60.784C59.0441 60.08 57.8761 59.728 56.4041 59.728C54.9641 59.728 53.8601 60 53.0921 60.544C52.3241 61.088 51.9401 61.808 51.9401 62.704C51.9401 63.408 52.1961 64 52.7081 64.48C53.2201 64.96 53.8441 65.344 54.5801 65.632C55.3161 65.888 56.4041 66.224 57.8441 66.64C59.7641 67.152 61.3321 67.68 62.5481 68.224C63.7961 68.736 64.8681 69.504 65.7641 70.528C66.6601 71.552 67.1241 72.912 67.1561 74.608C67.1561 76.112 66.7401 77.456 65.9081 78.64C65.0761 79.824 63.8921 80.752 62.3561 81.424C60.8521 82.096 59.0761 82.432 57.0281 82.432Z" fill="#EBEBEB"/>
<path d="M162.072 58.392C162.872 57.048 163.928 56.008 165.24 55.272C166.584 54.504 168.168 54.12 169.992 54.12V59.784H168.6C166.456 59.784 164.824 60.328 163.704 61.416C162.616 62.504 162.072 64.392 162.072 67.08V81H156.6V54.552H162.072V58.392ZM173.198 67.656C173.198 65 173.742 62.648 174.83 60.6C175.95 58.552 177.454 56.968 179.342 55.848C181.262 54.696 183.374 54.12 185.678 54.12C187.758 54.12 189.566 54.536 191.102 55.368C192.67 56.168 193.918 57.176 194.846 58.392V54.552H200.366V81H194.846V77.064C193.918 78.312 192.654 79.352 191.054 80.184C189.454 81.016 187.63 81.432 185.582 81.432C183.31 81.432 181.23 80.856 179.342 79.704C177.454 78.52 175.95 76.888 174.83 74.808C173.742 72.696 173.198 70.312 173.198 67.656ZM194.846 67.752C194.846 65.928 194.462 64.344 193.694 63C192.958 61.656 191.982 60.632 190.766 59.928C189.55 59.224 188.238 58.872 186.83 58.872C185.422 58.872 184.11 59.224 182.894 59.928C181.678 60.6 180.686 61.608 179.918 62.952C179.182 64.264 178.814 65.832 178.814 67.656C178.814 69.48 179.182 71.08 179.918 72.456C180.686 73.832 181.678 74.888 182.894 75.624C184.142 76.328 185.454 76.68 186.83 76.68C188.238 76.68 189.55 76.328 190.766 75.624C191.982 74.92 192.958 73.896 193.694 72.552C194.462 71.176 194.846 69.576 194.846 67.752ZM213.937 59.016V73.656C213.937 74.648 214.161 75.368 214.609 75.816C215.089 76.232 215.889 76.44 217.009 76.44H220.369V81H216.049C213.585 81 211.697 80.424 210.385 79.272C209.073 78.12 208.417 76.248 208.417 73.656V59.016H205.297V54.552H208.417V47.976H213.937V54.552H220.369V59.016H213.937ZM228.197 51.048C227.205 51.048 226.373 50.712 225.701 50.04C225.029 49.368 224.693 48.536 224.693 47.544C224.693 46.552 225.029 45.72 225.701 45.048C226.373 44.376 227.205 44.04 228.197 44.04C229.157 44.04 229.973 44.376 230.645 45.048C231.317 45.72 231.653 46.552 231.653 47.544C231.653 48.536 231.317 49.368 230.645 50.04C229.973 50.712 229.157 51.048 228.197 51.048ZM230.885 54.552V81H225.413V54.552H230.885ZM249.541 81.432C247.045 81.432 244.789 80.872 242.773 79.752C240.757 78.6 239.173 77 238.021 74.952C236.869 72.872 236.293 70.472 236.293 67.752C236.293 65.064 236.885 62.68 238.069 60.6C239.253 58.52 240.869 56.92 242.917 55.8C244.965 54.68 247.253 54.12 249.781 54.12C252.309 54.12 254.597 54.68 256.645 55.8C258.693 56.92 260.309 58.52 261.493 60.6C262.677 62.68 263.269 65.064 263.269 67.752C263.269 70.44 262.661 72.824 261.445 74.904C260.229 76.984 258.565 78.6 256.453 79.752C254.373 80.872 252.069 81.432 249.541 81.432ZM249.541 76.68C250.949 76.68 252.261 76.344 253.477 75.672C254.725 75 255.733 73.992 256.501 72.648C257.269 71.304 257.653 69.672 257.653 67.752C257.653 65.832 257.285 64.216 256.549 62.904C255.813 61.56 254.837 60.552 253.621 59.88C252.405 59.208 251.093 58.872 249.685 58.872C248.277 58.872 246.965 59.208 245.749 59.88C244.565 60.552 243.621 61.56 242.917 62.904C242.213 64.216 241.861 65.832 241.861 67.752C241.861 70.6 242.581 72.808 244.021 74.376C245.493 75.912 247.333 76.68 249.541 76.68ZM282.022 54.12C284.102 54.12 285.958 54.552 287.59 55.416C289.254 56.28 290.55 57.56 291.478 59.256C292.406 60.952 292.87 63 292.87 65.4V81H287.446V66.216C287.446 63.848 286.854 62.04 285.67 60.792C284.486 59.512 282.87 58.872 280.822 58.872C278.774 58.872 277.142 59.512 275.926 60.792C274.742 62.04 274.15 63.848 274.15 66.216V81H268.678V54.552H274.15V57.576C275.046 56.488 276.182 55.64 277.558 55.032C278.966 54.424 280.454 54.12 282.022 54.12Z" fill="#EBEBEB"/>
<path d="M142.794 57.8094C147.612 60.9683 147.612 68.0317 142.794 71.1906L93.3859 103.579C88.0656 107.067 81 103.25 81 96.8884L81 32.1116C81 25.75 88.0656 21.9334 93.3859 25.421L142.794 57.8094Z" fill="#EBEBEB"/>
<path d="M161.668 94.4775C150.85 114.676 129.544 128.416 105.028 128.416L104.198 128.411C80.0324 128.105 59.0839 114.448 48.3887 94.4775H54.1328C64.4615 111.807 83.389 123.416 105.028 123.416C126.668 123.416 145.595 111.807 155.924 94.4775H161.668ZM105.858 0.00488281C133.908 0.360263 157.623 18.7028 166 44.0283H160.707C152.455 21.2644 130.642 5.00002 105.028 5C79.4151 5.00002 57.6017 21.2644 49.3496 44.0283H44.0566C52.5166 18.4535 76.617 2.31278e-05 105.028 0L105.858 0.00488281Z" fill="#EBEBEB"/>
</g>
<defs>
<clipPath id="clip0_2101_191">
<rect width="297" height="129" fill="white"/>
</clipPath>
</defs>
</svg>
